<svg width="154" height="198" fill="none" xmlns="http://www.w3.org/2000/svg"><path d="M133.484 39.89c-3.742 0-7.04 1.813-9.14 4.57h-96.72c-2.1-2.757-5.398-4.57-9.14-4.57-6.341 0-11.5 5.126-11.5 11.426s5.159 11.425 11.5 11.425c3.742 0 7.04-1.812 9.14-4.57h4.163l-2.705 96.443c0 .918.555 1.75 1.408 2.107l44.601 20.992a2.336 2.336 0 001.785 0l45.503-19.183a2.284 2.284 0 001.408-2.106l-3.606-98.253h4.163c2.099 2.758 5.398 4.57 9.14 4.57 6.341 0 11.5-5.126 11.5-11.425 0-6.3-5.159-11.425-11.5-11.425zM122.217 53.6H29.752a11.349 11.349 0 000-4.57h92.465a11.326 11.326 0 000 4.57z" fill="#C7C7C7"/><g clip-path="url(#clip0_1_558)"><path d="M99.693 17.775l2.464 5.15c.821 1.746.365 3.861-1.187 4.965l-7.118 5.7a3.906 3.906 0 01-2.1.92l.73-6.253 3.651-4.137-4.016-7.265-5.476 6.253 2.647 4.782-.73 6.252c-.639-.276-1.187-.736-1.643-1.38l-5.111-6.62c-1.095-1.47-1.187-3.402-.091-4.873l4.38-6.252L76.146.947l-10.04 14.069 4.382 6.252c1.004 1.471 1.004 3.494-.092 4.873l-5.11 6.62a5.987 5.987 0 01-1.644 1.38l-.639-6.16L65.65 23.2l-5.476-6.252-4.016 7.264 3.651 4.137.73 6.253c-.73-.184-1.46-.46-2.099-.92l-7.119-5.7c-1.46-1.196-2.008-3.31-1.187-4.966l2.465-5.149-9.675-9.47 5.659 28.596v2.85h55.034v-2.85l5.659-28.597-9.583 9.379zm-23.548-5.333c1.187 0 2.1.92 2.1 2.115 0 1.195-.913 2.115-2.1 2.115-1.186 0-2.099-.92-2.099-2.115 0-1.196.913-2.115 2.1-2.115zm0 18.666c1.187 0 2.1.92 2.1 2.115 0 1.195-.913 2.114-2.1 2.114-1.186 0-2.099-.919-2.099-2.114-.091-1.104.913-2.115 2.1-2.115z" fill="#C7C7C7"/></g><path fill-rule="evenodd" clip-rule="evenodd" d="M27.085 87.814c-2.246-1.503-5.121-2.461-8.553-2.79l-4.882-.469c-2.789-.267-4.1-1.976-3.846-4.59.026-.496.067-.974.107-1.44.086-1.01.167-1.966.085-2.937-3.413 5.651-2.09 11.581 2.156 13.747 2.618 1.306 5.236 2.613 7.796 4.265 2.998 2.222 2.197 7.069-1.716 10.387-4.116 3.473-10.506 3.563-11.678-.066-1.228-3.283-1.702-6.846.988-11.335.381-.543.663-1.213 1.073-2.187l.285-.672c-5.1 5.137-9.667 13.491-7.356 19.868 1.551 4.545 4.986 7.336 10.247 8.721.539.177 1.086.338 1.629.497 2.503.738 4.918 1.449 6.022 3.578l.132.276c.5 1.043 1.074 2.241 1.184 3.543.032.882-.951 2.546-1.82 3.518-1.478 1.441-3.076 1.463-4.21.827-2.618-1.306-4.367-3.584-4.752-6.611.114-.692.026-1.228-.063-1.764-5.53 6.679-4.963 12.888 1.433 14.909 1.34.533 2.832.848 4.34 1.167 1.112.234 2.232.47 3.305.797 2.697.592 4.701 1.958 6.552 3.531l1.542-54.77zm100.36 56.278l-2.007-54.463c2.424-2.554 6.057-4.158 10.714-4.605l4.882-.469c2.789-.267 4.101-1.976 3.846-4.59a42.786 42.786 0 00-.107-1.44c-.086-1.01-.167-1.966-.085-2.937 3.413 5.651 2.09 11.581-2.156 13.747-2.618 1.306-5.236 2.613-7.796 4.265-2.998 2.222-2.197 7.069 1.716 10.387 4.116 3.473 10.506 3.563 11.678-.066 1.228-3.283 1.702-6.846-.988-11.335-.381-.543-.663-1.213-1.073-2.187-.088-.21-.182-.433-.285-.672 5.1 5.137 9.668 13.491 7.356 19.868-1.551 4.545-4.986 7.336-10.247 8.721-.539.177-1.086.338-1.629.497-2.503.738-4.918 1.449-6.021 3.578l-.133.276c-.5 1.043-1.074 2.241-1.184 3.543-.032.882.952 2.546 1.821 3.518 1.477 1.441 3.075 1.463 4.209.827 2.618-1.306 4.367-3.584 4.752-6.611-.114-.692-.025-1.228.063-1.764 5.531 6.679 4.963 12.888-1.433 14.909-1.339.533-2.832.848-4.341 1.167-1.111.234-2.231.47-3.303.797-3.535.776-5.88 2.881-8.249 5.039z" fill="#C7C7C7"/><path d="M56.352 189.357v-39.359l39.493-.899-2.053 41.248-18.968 7.257-18.472-8.247z" fill="url(#paint0_linear_1_558)"/><g filter="url(#filter0_d_1_558)"><path d="M78.836 165.289c0-.543-.142-.995-.426-1.357-.285-.388-.673-.582-1.164-.582-1.086 0-1.668.892-1.745 2.676l-7.06 1.241c1.216-5.636 3.44-9.153 6.672-10.549a6.749 6.749 0 012.754-.582c1.965 0 3.658.659 5.08 1.978 1.914 1.707 2.87 3.736 2.87 6.089 0 2.25-.969 4.435-2.908 6.555-1.345 1.526-3.465 2.948-6.361 4.267-2.198 1.008-3.555 1.952-4.073 2.831l9.852-.621-.814 7.059-16.6.892a25.044 25.044 0 01-.078-1.629c0-2.482.504-4.615 1.512-6.399 1.19-2.198 3.892-4.409 8.107-6.633 2.327-1.215 3.697-2.417 4.11-3.607a5.363 5.363 0 00.272-1.629z" fill="#fff"/></g><defs><linearGradient id="paint0_linear_1_558" x1="76.099" y1="75.337" x2="76.099" y2="197.604" gradientUnits="userSpaceOnUse"><stop/><stop offset="1" stop-color="#2A3065"/></linearGradient><clipPath id="clip0_1_558"><path fill="#fff" transform="translate(42.923 .948)" d="M0 0h66.353v48.826H0z"/></clipPath><filter id="filter0_d_1_558" x="60.835" y="156.136" width="28.983" height="37.05" filterUnits="userSpaceOnUse" color-interpolation-filters="sRGB"><feFlood flood-opacity="0" result="BackgroundImageFix"/><feColorMatrix in="SourceAlpha" values="0 0 0 0 0 0 0 0 0 0 0 0 0 0 0 0 0 0 127 0" result="hardAlpha"/><feOffset dy="4"/><feGaussianBlur stdDeviation="2"/><feColorMatrix values="0 0 0 0 0 0 0 0 0 0 0 0 0 0 0 0 0 0 0.25 0"/><feBlend in2="BackgroundImageFix" result="effect1_dropShadow_1_558"/><feBlend in="SourceGraphic" in2="effect1_dropShadow_1_558" result="shape"/></filter></defs></svg>