<svg width="166" height="235" fill="none" xmlns="http://www.w3.org/2000/svg"><path d="M147.77 59.89c-4.176 0-7.857 2.01-10.2 5.068H29.636c-2.343-3.058-6.024-5.067-10.2-5.067-7.076 0-12.833 5.682-12.833 12.667 0 6.984 5.757 12.666 12.833 12.666 4.177 0 7.857-2.009 10.2-5.067h4.646l-3.018 106.927c0 1.018.618 1.94 1.57 2.336l49.773 23.273a2.6 2.6 0 001.992 0l50.779-21.267a2.533 2.533 0 001.57-2.336l-4.024-108.933h4.646c2.343 3.058 6.024 5.067 10.199 5.067 7.077 0 12.834-5.682 12.834-12.666.001-6.985-5.756-12.667-12.833-12.667zm-12.574 15.2H32.011a12.503 12.503 0 000-5.066h103.185a12.525 12.525 0 000 5.067z" fill="#FCC211"/><g clip-path="url(#clip0_1_503)" fill="#FCC211"><path d="M77.724 47.73l1.735-1.378-2.355-23.67c-3.1.626-5.95 1.628-8.43 3.006l8.182 22.543c.248 0 .62-.251.868-.501zm13.758 0c.248.25.62.375.868.626l8.181-22.543c-2.603-1.377-5.454-2.38-8.429-3.006l-2.355 23.545 1.735 1.378zM80.45 13.29c0 .5.124 1.127.248 1.502.62 1.503 2.107 2.63 3.843 2.63 1.735 0 3.222-1.127 3.842-2.63.248-.5.248-1.002.248-1.503a4.174 4.174 0 00-1.86-3.506l4.587.876V4.9l-4.958.876.868-5.01H81.69l.868 5.01-4.959-.877v5.636l4.71-.751a4.174 4.174 0 00-1.859 3.506zm-1.24 4.257l.497 4.76 2.23 22.166 2.48-1.878.248-.25.124.25 2.479 1.878 2.231-22.167.496-4.759H79.21zM54.916 46.978l2.603 1.503c.744.376 1.611 0 1.86-.125v-7.64l10.287 7.264c.496.376 1.116.626 1.86.877.991.25 1.983.375 2.85.25L66.32 27.191l-3.471-9.644s-12.52 1.128-12.52 12.524c0 7.139 2.232 13.025 3.967 16.531l.62.376zm42.888 1.879c.62-.25 1.24-.501 1.859-.877l10.288-7.264v7.765c.124.125.992.501 1.735.125l2.603-1.503.744-.375C116.769 43.22 119 37.335 119 30.196c0-11.396-12.52-12.523-12.52-12.523l-3.594 9.518-7.933 21.916c.991 0 1.983 0 2.85-.25zM56.156 59.878h-2.603v7.013h62.1v-7.013H56.156z"/><path d="M117.017 48.481l-3.099 1.753-.868.501c-1.487.877-3.347.626-4.586-.25-.744-.501-1.24-1.253-1.24-2.13v-2.629l-3.842 2.88-2.231 1.503c-1.984 1.378-4.71 1.879-7.19 1.503-.124 0-.371-.125-.495-.125-1.364-.25-2.603-.877-3.595-1.628l-.496-.376-2.479-1.879-2.355-1.753-2.231 1.753-2.48 1.879-.495.376c-.992.876-2.355 1.377-3.595 1.628-.124 0-.372.125-.496.125-2.479.376-5.082-.125-7.189-1.503l-2.231-1.503-3.966-2.755v2.63c0 .877-.496 1.628-1.24 2.129-1.24.877-3.099 1.127-4.586.25l-.868-.5-2.975-1.879-4.586-2.755 5.082 9.894h64.332l4.71-9.894-4.71 2.755z"/></g><path fill-rule="evenodd" clip-rule="evenodd" d="M139.809 195.531c.331-.432.521-.967.521-1.531l-.843-63.806c2.501-.355 4.694-1.724 5.676-3.793 2.232-4.665 2.924-9.827 1.569-14.669-1.355-4.843.151-8.763 1.949-12.834.454-.933 1.111-1.898 1.788-2.893.398-.584.802-1.178 1.176-1.781a76.135 76.135 0 01-.892 3.183c-.619 2.088-1.197 4.04-1.377 6.12-.06 1.694.689 3.894 1.872 5.499 4.585 6.128 6.832 12.726 5.206 20.034-.762 3.038-2.58 5.736-4.301 8.289v.001c-.203.301-.405.601-.604.899-.988 1.42-2.087 2.732-3.164 4.017-.894 1.067-1.773 2.116-2.561 3.194-1.666 2.156-1.583 3.406.04 5.153 1.993 2.111 4.265 2.598 6.157 1.25 3.422-2.324 5.225-5.659 5.119-9.854-.409-5.516 2.561-9.455 6.78-12.745-.286.887-.5 1.552-1.006 2.368-.129.399-.391.755-.641 1.094-.304.412-.588.798-.585 1.203-.064.335-.14.682-.217 1.036-.349 1.596-.727 3.332-.178 4.711 2.688 6.74 1.341 12.425-3.229 17.561l-.231.287c-1.945 2.418-3.761 4.676-3.876 7.935.001.142-.001.292-.002.447-.007.653-.015 1.403.168 2.054.611 3.379 2.306 4.904 4.865 4.505 2.778-.328 4.736-2.635 4.493-5.65.058-.847-.112-1.576-.362-2.648l-.043-.185-.058-.253c3.241 2.757 3.413 5.995 2.341 9.321-.04.124-.092.423-.168.864-.798 4.632-4.289 24.872-25.382 21.617zM26.581 130.054l-.278 61.942c0 1.017.616 1.938 1.564 2.333l1.52.751c-23.21 5.2-26.929-16.365-27.757-21.166-.076-.441-.127-.74-.167-.864-1.072-3.326-.9-6.564 2.341-9.321l-.102.438c-.25 1.072-.42 1.801-.361 2.648-.243 3.015 1.715 5.322 4.493 5.65 2.558.399 4.254-1.126 4.865-4.505.183-.651.175-1.401.168-2.054-.001-.155-.003-.305-.002-.447-.115-3.259-1.932-5.517-3.876-7.935l-.231-.287c-4.57-5.136-5.917-10.821-3.23-17.561.55-1.379.171-3.115-.177-4.711-.077-.354-.153-.701-.217-1.036.003-.405-.281-.791-.586-1.203-.249-.339-.511-.695-.64-1.094-.506-.816-.72-1.481-1.006-2.368 4.219 3.29 7.188 7.229 6.78 12.745-.106 4.195 1.697 7.53 5.119 9.854 1.892 1.348 4.164.861 6.157-1.25 1.623-1.747 1.706-2.997.04-5.153-.789-1.078-1.667-2.127-2.561-3.194-1.077-1.285-2.176-2.597-3.164-4.017l-.604-.899c-1.722-2.554-3.54-5.252-4.301-8.29-1.626-7.308.62-13.906 5.206-20.034 1.183-1.605 1.932-3.805 1.872-5.499-.18-2.08-.759-4.032-1.377-6.12a76.899 76.899 0 01-.892-3.183c.374.603.778 1.197 1.176 1.78.677.995 1.334 1.96 1.788 2.894 1.798 4.071 3.304 7.991 1.949 12.834-1.355 4.842-.664 10.004 1.569 14.669.882 1.858 2.74 3.151 4.922 3.653z" fill="#FCC211"/><path d="M57.603 222.785V179.21l57-1.319-2.964 46.347-27.375 10.653-26.661-12.106z" fill="#05071A"/><path d="M57.603 222.785V179.21l57-1.319-2.964 46.347-27.375 10.653-26.661-12.106z" fill="url(#paint0_linear_1_503)"/><g filter="url(#filter0_d_1_503)"><path d="M95.68 186.207c-3.555 13.319-5.86 25.032-6.917 35.142l-8.66 2.225 4.542-26.136-6.759 1.035 1.373-9.626 16.421-2.64z" fill="#fff"/></g><defs><linearGradient id="paint0_linear_1_503" x1="86.103" y1="55.409" x2="86.103" y2="234.891" gradientUnits="userSpaceOnUse"><stop/><stop offset="1" stop-color="#2A6550"/></linearGradient><clipPath id="clip0_1_503"><path fill="#fff" transform="translate(47.603 .89)" d="M0 0h74v66H0z"/></clipPath><filter id="filter0_d_1_503" x="73.886" y="186.207" width="25.794" height="45.367" filterUnits="userSpaceOnUse" color-interpolation-filters="sRGB"><feFlood flood-opacity="0" result="BackgroundImageFix"/><feColorMatrix in="SourceAlpha" values="0 0 0 0 0 0 0 0 0 0 0 0 0 0 0 0 0 0 127 0" result="hardAlpha"/><feOffset dy="4"/><feGaussianBlur stdDeviation="2"/><feColorMatrix values="0 0 0 0 0 0 0 0 0 0 0 0 0 0 0 0 0 0 0.25 0"/><feBlend in2="BackgroundImageFix" result="effect1_dropShadow_1_503"/><feBlend in="SourceGraphic" in2="effect1_dropShadow_1_503" result="shape"/></filter></defs></svg>