<svg width="149" height="198" fill="none" xmlns="http://www.w3.org/2000/svg"><path d="M132.561 40.89c-3.769 0-7.091 1.813-9.206 4.57H25.934c-2.115-2.757-5.438-4.57-9.207-4.57-6.387 0-11.583 5.126-11.583 11.426S10.34 63.74 16.727 63.74c3.77 0 7.092-1.812 9.207-4.57h4.193l-2.724 96.443c0 .918.558 1.75 1.417 2.107l44.925 20.992a2.368 2.368 0 001.798 0l45.833-19.183a2.285 2.285 0 001.417-2.106l-3.632-98.253h4.193c2.115 2.758 5.437 4.57 9.206 4.57 6.387 0 11.584-5.126 11.584-11.425 0-6.3-5.196-11.425-11.583-11.425zM121.212 54.6H28.077a11.263 11.263 0 000-4.57h93.135a11.255 11.255 0 000 4.57z" fill="#BE8D69"/><path d="M95.64 22.53c2.616.604 4.528 3.018 4.528 5.835 0 3.32-2.717 5.937-5.936 5.937-1.006 0-1.912-.201-2.717-.705-.503-.301-1.006-.603-1.409-1.006-.704.705-1.61 1.208-2.515 1.409-.503.1-1.006.201-1.61.201-3.32 0-5.936-2.716-5.936-5.936 0-3.22 2.616-5.836 5.836-5.936L74.913.696 63.947 22.33c3.22.1 5.836 2.716 5.836 5.936 0 3.32-2.716 5.936-5.936 5.936-.503 0-1.107-.1-1.61-.201-1.006-.302-1.811-.805-2.515-1.409-.403.403-.906.705-1.41 1.006-.804.403-1.81.705-2.716.705-3.32 0-5.936-2.717-5.936-5.936 0-2.818 1.912-5.132 4.528-5.836L44.829 9.249v35.014h60.068V9.249l-9.257 13.28zm5.132 15.193c.805 0 1.408.604 1.408 1.408 0 .805-.603 1.409-1.408 1.409a1.376 1.376 0 01-1.409-1.409c0-.804.604-1.408 1.409-1.408zm-6.54 0c.805 0 1.408.604 1.408 1.408 0 .504-.302 1.007-.704 1.208-.201.1-.402.201-.704.201a1.376 1.376 0 01-1.409-1.409c0-.603.302-1.006.805-1.308.201 0 .403-.1.604-.1zm-6.44 0c.805 0 1.409.604 1.409 1.408 0 .805-.604 1.409-1.409 1.409s-1.408-.604-1.408-1.409c0-.804.603-1.408 1.408-1.408zm-6.44 0c.806 0 1.41.604 1.41 1.408 0 .805-.604 1.409-1.41 1.409-.804 0-1.408-.604-1.408-1.409 0-.804.604-1.408 1.409-1.408zm-6.439 0c.806 0 1.41.604 1.41 1.408 0 .805-.604 1.409-1.41 1.409-.804 0-1.408-.604-1.408-1.409 0-.804.604-1.408 1.409-1.408zm-6.54 0c.805 0 1.41.604 1.41 1.408 0 .805-.605 1.409-1.41 1.409-.804 0-1.408-.604-1.408-1.409 0-.804.704-1.408 1.409-1.408zm-6.439 0c.805 0 1.409.604 1.409 1.408 0 .805-.604 1.409-1.409 1.409s-1.408-.604-1.408-1.409c0-.804.603-1.408 1.408-1.408zm-6.44 0c.202 0 .403.1.604.1.504.202.805.705.805 1.308 0 .805-.603 1.409-1.408 1.409-.201 0-.503-.1-.705-.201-.402-.201-.704-.704-.704-1.208 0-.804.604-1.408 1.409-1.408zm-6.439 0c.805 0 1.409.604 1.409 1.408 0 .805-.604 1.409-1.409 1.409s-1.408-.604-1.408-1.409c0-.804.603-1.408 1.408-1.408z" fill="#BE8D69"/><path fill-rule="evenodd" clip-rule="evenodd" d="M126.593 155.517l-2.167-58.815c1.805-1.107 3.972-1.894 6.473-2.319l4.649-.79c2.656-.452 3.813-2.306 3.418-5a49.974 49.974 0 00-.185-1.487v-.001c-.141-1.044-.274-2.03-.252-3.042 3.596 5.65 2.673 11.883-1.27 14.395-2.432 1.518-4.863 3.037-7.22 4.91-2.743 2.492-1.696 7.47 2.244 10.667 4.144 3.347 10.27 3.042 11.182-.796.987-3.482 1.235-7.207-1.602-11.697-.396-.539-.705-1.217-1.154-2.201l-.003-.007c-.096-.21-.198-.434-.309-.673 5.182 5.012 10.041 13.393 8.196 20.151-1.223 4.812-4.352 7.922-9.311 9.686-.506.217-1.021.418-1.531.618h-.001c-2.355.921-4.627 1.809-5.56 4.086l-.111.295c-.419 1.114-.9 2.392-.93 3.749.021.918 1.059 2.582 1.948 3.536 1.499 1.403 3.03 1.326 4.08.596 2.432-1.519 3.975-3.991 4.169-7.154-.149-.712-.096-1.273-.042-1.835 5.684 6.584 5.5 13.06-.51 15.555-1.252.637-2.664 1.057-4.09 1.481-1.051.313-2.11.628-3.119 1.034-3.02.927-5.046 2.92-6.992 5.058zM25.622 96.907c-1.868-1.215-4.145-2.073-6.797-2.524l-4.649-.79c-2.656-.452-3.814-2.306-3.418-5 .053-.514.12-1.007.185-1.488.141-1.044.274-2.03.252-3.042-3.596 5.65-2.673 11.883 1.27 14.395 2.431 1.518 4.863 3.037 7.22 4.91 2.743 2.492 1.696 7.47-2.244 10.667-4.144 3.347-10.27 3.042-11.182-.796-.987-3.482-1.235-7.207 1.602-11.697.396-.539.705-1.217 1.154-2.201l.312-.68c-5.182 5.012-10.04 13.393-8.196 20.151 1.223 4.812 4.352 7.922 9.311 9.686.506.217 1.02.418 1.531.618 2.356.921 4.627 1.809 5.561 4.086l.11.295c.42 1.114.9 2.392.93 3.749-.02.918-1.058 2.582-1.947 3.536-1.499 1.403-3.03 1.326-4.08.596-2.432-1.519-3.975-3.991-4.17-7.154.15-.712.096-1.273.043-1.835-5.685 6.584-5.5 13.06.51 15.555 1.252.637 2.663 1.057 4.09 1.481 1.05.313 2.11.628 3.118 1.034 3.384 1.038 5.52 3.415 7.693 5.834l.517.574a2.27 2.27 0 01-.379-1.255l1.653-58.705zm-.797 60.483a2.3 2.3 0 00.559.331l.192.098c-.25-.024-.409-.063-.47-.127-.094-.1-.188-.201-.28-.302z" fill="#BE8D69"/><path d="M59.454 190.122v-39.783l39.688-.806-2.064 41.477-19.06 6.507-18.564-7.395z" fill="url(#paint0_linear_1_535)"/><g filter="url(#filter0_d_1_535)"><path d="M76.63 178.584c0 .421.21.632.632.632.174 0 .372-.037.595-.111 1.042-.298 1.835-.806 2.381-1.526.223-.272.335-.545.335-.818 0-1.091-1.178-1.637-3.534-1.637-1.29 0-2.988.149-5.096.447l1.228-6.1a436.12 436.12 0 006.323-4.241c-2.728.248-4.761.459-6.1.633l.409-6.882 14.655-.855a354.823 354.823 0 00-1.264 8.146c-1.513.025-3.51 1.091-5.989 3.199 2.281.347 3.98.967 5.096 1.859 1.14.893 1.699 2.059 1.674 3.497 0 2.504-1.476 4.972-4.427 7.402-3 2.48-5.84 3.608-8.517 3.385-3.075-.248-4.725-2.529-4.948-6.844l6.696-.93a2.2 2.2 0 00-.15.744z" fill="#fff"/></g><defs><linearGradient id="paint0_linear_1_535" x1="79.298" y1="87.882" x2="79.298" y2="197.517" gradientUnits="userSpaceOnUse"><stop/><stop offset="1" stop-color="#76113C"/></linearGradient><filter id="filter0_d_1_535" x="66.083" y="158.126" width="26.375" height="35.516" filterUnits="userSpaceOnUse" color-interpolation-filters="sRGB"><feFlood flood-opacity="0" result="BackgroundImageFix"/><feColorMatrix in="SourceAlpha" values="0 0 0 0 0 0 0 0 0 0 0 0 0 0 0 0 0 0 127 0" result="hardAlpha"/><feOffset dy="4"/><feGaussianBlur stdDeviation="2"/><feColorMatrix values="0 0 0 0 0 0 0 0 0 0 0 0 0 0 0 0 0 0 0.25 0"/><feBlend in2="BackgroundImageFix" result="effect1_dropShadow_1_535"/><feBlend in="SourceGraphic" in2="effect1_dropShadow_1_535" result="shape"/></filter></defs></svg>