<svg width="409" height="100" fill="none" xmlns="http://www.w3.org/2000/svg"><path d="M151.454 99.07c8.482-12.2 7.935-29.5 7.935-31.053 0-3.327-1.368-6.21-6.02-7.763.821 1.11 1.368 1.775 1.642 2.662 1.368 2.662 0 5.323-3.01 6.432-2.736 1.11-5.199.222-7.114-2.661-.548-.666-.821-1.553-1.095-2.218-1.094-3.106.274-5.767 1.642-8.65 3.283-5.99 2.736-11.534-2.736-16.858-1.369-1.33-1.369-3.548-1.642-5.323-.274-.665.547-1.552.547-2.44.274-.887.274-1.552.274-2.44-3.558 4.215-5.473 8.65-3.01 13.53 1.642 3.771.821 7.32-2.189 10.425-1.642 1.774-4.378 1.996-7.388.666-2.463-1.11-3.01-2.218-1.916-4.658 1.095-2.662 2.737-5.324 3.831-8.207 1.095-3.105 2.463-6.432 2.189-9.76-.821-7.097-5.746-12.42-13.134-16.634-1.915-1.11-3.557-2.884-4.105-4.436-.82-2.884-.547-5.767-.82-9.094-.548 1.774-1.369 3.548-1.642 5.101-.547 4.214-.821 8.207 2.462 12.2 3.284 3.992 4.379 8.871 3.558 13.75-.548 3.328-4.926 5.99-9.851 5.99-4.104 0-7.388-2.44-8.482-5.99-.821-3.548.547-6.653 2.462-9.537.821-1.33 1.916-2.883 2.736-4.214-1.094.444-1.641 1.11-2.462 1.996-5.2 5.546-9.304 11.534-7.935 18.854 1.094 4.657 2.462 9.537 3.83 14.195.821 2.883.821 5.989-1.368 8.65-1.642 2.218-5.199 3.327-7.661 2.662-1.916-.666-2.737-2.662-2.19-5.323.274-1.997.548-4.215.274-6.21-.273-3.106-4.104-6.433-7.935-7.099.82.888 2.189 1.775 2.463 2.662.82 4.214 1.641 8.428-2.19 12.2-2.188 2.217-5.472 2.883-7.661 5.1-1.915 1.775-2.189 3.771-1.642 5.546l79.353 27.947zm61.073-29.411c-1.094 1.996-2.189 5.323-2.463 7.763l35.299-1.553c0-.222 2.736 6.876 2.736 6.654-.547-4.436-1.642-11.312-2.189-12.643-.821-3.77-3.831-5.766-6.567-8.65-3.01-2.883-3.558-5.989-1.642-9.537.547-1.11.821-2.44 1.368-4.215-.821.444-.821.666-1.094.666-4.105 3.992-4.926 8.428-2.737 13.308 1.095 2.662 1.368 5.101-.821 7.32-2.736 2.661-6.567 2.44-7.935-.888-.821-1.996-.821-3.992-.821-6.21 0-3.55.821-6.876.547-10.425-.273-4.214-4.651-10.203-9.577-11.977.821 1.33 1.916 2.218 2.737 3.549.821 1.33 2.189 2.661 2.462 4.214 1.642 5.767-.821 11.09-4.651 15.97-1.916 1.996-3.557 4.435-4.652 6.654zm161.723-6.237c-.547 4.657-3.831 8.65-7.388 12.642-.547.666-1.095.888-1.095 1.553-.547 2.662-1.642 6.21-1.915 9.094l30.646 3.327c.274-1.11 2.737-6.21 3.01-7.32.821-3.548 1.095-7.097 4.105-10.203 1.641-1.996 3.83-3.77 5.199-5.766 4.104-5.102.547-9.981-8.483-11.756.274.444.547.887 1.095 1.331 1.641 2.44 1.641 5.101.273 7.541-.547 1.11-1.915 1.997-4.104 1.775-1.368-.222-3.284-.888-3.831-1.553-.821-1.109-1.094-2.44-1.368-3.549-.547-2.661 1.915-4.88 3.831-7.32 3.557-3.992 4.651-7.984 3.01-12.198-2.189-5.989-11.493-9.538-19.154-10.425 1.368.665 2.189 1.109 3.01 1.33 5.198 1.775 7.114 4.659 8.208 7.764 1.369 3.327-4.104 6.876-9.85 6.654-5.473-.222-9.304-3.327-8.209-6.654 1.094-2.662 2.462-5.102 3.831-7.541 2.189-3.993-.548-9.094-7.115-11.312.821 1.109 1.916 1.996 3.01 3.105 1.916 1.774 1.916 3.77-.273 5.545l-3.831 3.105c-8.756 7.098-8.209 15.748 1.915 22.402 4.926 2.218 6.02 5.102 5.473 8.429zm-198.829 5.463c-.547 4.657-3.831 8.65-7.388 12.642-.547.666-1.094.888-1.094 1.553-.548 2.662-1.642 6.21-1.916 9.094L195.67 95.5c.273-1.11 2.736-6.21 3.01-7.32.821-3.548 1.094-7.097 4.104-10.202 1.642-1.997 3.831-3.771 5.199-5.767 4.105-5.102.547-9.981-8.482-11.756.273.444.547.887 1.094 1.331 1.642 2.44 1.642 5.101.274 7.541-.548 1.11-1.916 1.996-4.105 1.775-1.368-.222-3.283-.887-3.831-1.553-.82-1.109-1.094-2.44-1.368-3.549-.547-2.661 1.916-4.88 3.831-7.32 3.557-3.992 4.652-7.984 3.01-12.198-2.189-5.989-11.492-9.538-19.154-10.425 1.368.665 2.189 1.109 3.01 1.33 5.199 1.775 7.114 4.659 8.209 7.764 1.368 3.327-4.105 6.876-9.851 6.654-5.472-.222-9.303-3.327-8.209-6.654 1.095-2.662 2.463-5.102 3.831-7.541 2.189-3.993-.547-9.094-7.114-11.312.821 1.109 1.915 1.996 3.01 3.105 1.915 1.774 1.915 3.77-.274 5.545l-3.831 3.105c-8.756 7.098-8.209 15.748 1.916 22.402 4.925 2.218 6.019 5.102 5.472 8.429zM6.006 65.064C7.1 66.616 1.08 79.924.533 81.699c-1.095 2.44 64.03-7.541 64.303-9.316.547-3.327 1.094-6.654 4.651-9.315 2.463-1.775 3.01-4.215 2.19-6.655-.821-4.214-3.01-7.763-6.294-11.09-2.736-2.883-2.736-5.767-1.094-9.094.547-1.109 1.094-2.44 1.641-3.548l-.547-.222c-.82 1.109-1.915 2.44-2.736 3.549-3.01 5.101-4.105 10.424-1.916 15.97 1.095 2.883.548 5.988-2.736 7.762-2.189 1.331-5.199 2.44-7.935 3.106-5.2 1.109-9.304-1.775-9.304-6.21 0-1.997.274-4.215-.273-6.211-1.368-5.102-5.473-9.094-9.577-12.643-2.19-1.996-4.105-3.992-4.378-6.654-.274-3.105 0-6.21 0-9.316-.274.222-.821.666-1.095 1.331-4.104 5.767-3.557 11.534.274 17.079 2.189 3.327 3.557 6.432 3.283 9.981-.273 4.436-4.104 8.428-8.756 9.094-4.378.665-6.84-1.11-6.567-4.658 0-1.109.547-2.218.821-3.105 1.095-3.327-1.915-6.876-6.293-7.32 1.094 1.553 3.283 2.662 2.189 4.658-.821 1.553-2.19 3.105-3.284 4.436-.274.222-.547.444-.547.666-2.19 1.996-2.737 4.436-1.916 7.097.274 1.553.548 2.884 1.369 3.993z" fill="#fff"/><path d="M359.655 74.601c-1.094 1.553 4.925 14.861 5.473 16.636 1.094 2.44-64.029-7.542-64.303-9.316-.547-3.327-1.095-6.654-4.652-9.316-2.462-1.774-3.01-4.214-2.189-6.654.821-4.214 3.01-7.763 6.294-11.09 2.736-2.883 2.736-5.767 1.094-9.094-.547-1.109-1.094-2.44-1.642-3.549l.548-.222c.821 1.11 1.915 2.44 2.736 3.55 3.01 5.1 4.104 10.424 1.915 15.969-1.094 2.883-.547 5.989 2.737 7.763 2.189 1.33 5.199 2.44 7.935 3.105 5.199 1.11 9.303-1.774 9.303-6.21 0-1.996-.273-4.214.274-6.21 1.368-5.102 5.472-9.095 9.577-12.643 2.189-1.997 4.104-3.993 4.378-6.654.274-3.106 0-6.21 0-9.316.274.222.821.665 1.094 1.33 4.105 5.768 3.558 11.534-.273 17.08-2.189 3.327-3.557 6.432-3.284 9.98.274 4.437 4.105 8.429 8.756 9.094 4.379.666 6.841-1.109 6.568-4.657 0-1.11-.548-2.218-.821-3.106-1.095-3.327 1.915-6.875 6.293-7.32-1.094 1.553-3.283 2.663-2.189 4.659.821 1.552 2.189 3.105 3.284 4.436.273.222.547.443.547.665 2.189 1.996 2.736 4.436 1.915 7.098-.273 1.553-.547 2.883-1.368 3.992zM56.779 31.35c-2.463-4.436-3.831-9.094-1.916-13.974.547-1.109 1.095-2.218 1.368-3.549.821-2.44 1.095-4.88-1.368-6.875-.273-.222-.547-.666-.547-.888v-.221c7.114 2.218 9.577 6.432 7.662 12.642-.548 1.775-1.642 3.55-3.01 5.102-2.19 3.327-2.463 3.992-2.19 7.763zm193.99 31.93c.274 1.109.547 2.218.274 3.327l.273 13.308 28.458 9.316c6.567-16.192 7.935-23.29 7.661-25.286 0-.443 0-3.992.548-4.436 3.83-3.327 4.378-7.32.547-10.868-2.736-2.44-2.463-5.101-1.368-7.763.547-1.109 1.094-2.218 1.641-3.549-.273 0-.273-.222-.547-.222-.821 1.11-1.915 2.218-2.462 3.55-1.642 3.326-1.642 6.653-.274 9.98.547 1.331.274 2.44-.547 3.55-.821 1.108-2.463 1.552-4.105 1.108-1.368-.444-2.189-1.33-1.915-2.44.547-1.996 1.368-3.992 1.915-5.766.821-2.219 1.916-4.437 1.916-6.655.273-5.101-2.189-9.537-6.02-13.53-1.095-1.108-2.463-1.996-3.557-2.883l-.274.222c.274.444.821 1.109 1.094 1.553 1.095 1.774 2.463 3.326 3.284 5.323 1.368 2.883 1.094 5.988-.821 8.65-1.094 1.774-3.01 2.44-5.199 1.996-2.736-.665-4.378-2.44-3.557-5.101.547-1.997 1.368-3.993 2.189-5.767a25.074 25.074 0 00-4.925 5.323c-3.01 4.88-2.737 9.76-.548 14.64 1.095 2.439 2.189 5.1 3.01 7.54.548 2.218.274 4.436-2.189 5.767-2.736 1.553-4.104.887-4.651-1.33-.274-.888-.548-1.997-.274-2.884.547-2.662-.274-4.88-1.915-7.098-1.369-1.774-2.737-3.548-3.01-5.766-.274.443-.821.665-.821 1.108-.547 1.775.273 3.106.821 4.658.547 1.331 1.094 2.884 1.368 4.215.273 1.33-.821 2.218-2.463 2.218-1.642 0-2.736-.666-2.736-2.218 0-1.11.547-2.44.547-3.55-2.463 1.331-3.557 2.884-3.01 5.324.547 1.553 1.368 2.883 1.642 4.436z" fill="#fff"/><path d="M274.162 57.291c-1.369-3.105-3.284-5.766-1.095-8.65.547 1.11 1.095 2.44 1.642 3.549.547 1.774.274 3.327-.547 5.101z" fill="#fff"/></svg>