<svg width="409" height="100" viewBox="0 0 409 100" fill="none" xmlns="http://www.w3.org/2000/svg">
<path d="M151.454 99.0697C159.936 86.8706 159.389 69.57 159.389 68.0174C159.389 64.6904 158.021 61.807 153.369 60.2544C154.19 61.3634 154.737 62.0288 155.011 62.916C156.379 65.5776 155.011 68.2392 152.001 69.3482C149.265 70.4573 146.802 69.57 144.887 66.6866C144.339 66.0212 144.066 65.134 143.792 64.4686C142.698 61.3634 144.066 58.7018 145.434 55.8183C148.717 49.8297 148.17 44.2846 142.698 38.9614C141.329 37.6306 141.329 35.4126 141.056 33.6381C140.782 32.9727 141.603 32.0855 141.603 31.1983C141.877 30.3111 141.877 29.6457 141.877 28.7585C138.319 32.9727 136.404 37.4088 138.867 42.2884C140.509 46.059 139.688 49.6079 136.678 52.7131C135.036 54.4875 132.3 54.7093 129.29 53.3785C126.827 52.2695 126.28 51.1605 127.374 48.7207C128.469 46.059 130.111 43.3974 131.205 40.514C132.3 37.4088 133.668 34.0817 133.394 30.7547C132.573 23.6571 127.648 18.3338 120.26 14.1196C118.345 13.0106 116.703 11.2362 116.155 9.68354C115.335 6.80011 115.608 3.91669 115.335 0.589661C114.787 2.36408 113.966 4.13849 113.693 5.6911C113.146 9.90534 112.872 13.8978 116.155 17.8902C119.439 21.8826 120.534 26.7623 119.713 31.6419C119.165 34.969 114.787 37.6306 109.862 37.6306C105.758 37.6306 102.474 35.1908 101.38 31.6419C100.559 28.0931 101.927 24.9879 103.842 22.1044C104.663 20.7736 105.758 19.221 106.578 17.8902C105.484 18.3338 104.937 18.9992 104.116 19.8864C98.9169 25.4315 94.8124 31.4201 96.1806 38.7396C97.2751 43.3974 98.6432 48.2771 100.011 52.9349C100.832 55.8183 100.832 58.9236 98.6432 61.5852C97.0015 63.8032 93.4443 64.9122 90.9816 64.2468C89.0662 63.5814 88.2453 61.5852 88.7926 58.9236C89.0662 56.9273 89.3398 54.7093 89.0662 52.7131C88.7926 49.6079 84.9618 46.2808 81.131 45.6154C81.9519 46.5027 83.32 47.3899 83.5936 48.2771C84.4145 52.4913 85.2354 56.7055 81.4046 60.4762C79.2156 62.6942 75.932 63.3596 73.743 65.5776C71.8276 67.352 71.554 69.3483 72.1012 71.1227L151.454 99.0697Z" fill="white"/>
<path d="M212.527 69.6585C211.433 71.6547 210.338 74.9818 210.064 77.4216L245.363 75.869C245.363 75.6472 248.099 82.7448 248.099 82.523C247.552 78.087 246.457 71.2111 245.91 69.8803C245.089 66.1097 242.079 64.1135 239.343 61.2301C236.333 58.3466 235.785 55.2414 237.701 51.6926C238.248 50.5836 238.522 49.2528 239.069 47.4783C238.248 47.9219 238.248 48.1437 237.975 48.1437C233.87 52.1362 233.049 56.5722 235.238 61.4519C236.333 64.1135 236.606 66.5533 234.417 68.7713C231.681 71.433 227.85 71.2111 226.482 67.8841C225.661 65.8879 225.661 63.8917 225.661 61.6737C225.661 58.1248 226.482 54.7978 226.208 51.249C225.935 47.0347 221.557 41.0461 216.631 39.2717C217.452 40.6025 218.547 41.4897 219.368 42.8205C220.189 44.1513 221.557 45.4821 221.83 47.0347C223.472 52.8016 221.009 58.1248 217.179 63.0045C215.263 65.0007 213.622 67.4405 212.527 69.6585Z" fill="white"/>
<path d="M374.25 63.4217C373.703 68.0795 370.419 72.0719 366.862 76.0644C366.315 76.7298 365.767 76.9516 365.767 77.617C365.22 80.2786 364.125 83.8274 363.852 86.7109L394.498 90.0379C394.772 88.9289 397.235 83.8274 397.508 82.7184C398.329 79.1696 398.603 75.6208 401.613 72.5155C403.254 70.5193 405.443 68.7449 406.812 66.7487C410.916 61.6472 407.359 56.7676 398.329 54.9932C398.603 55.4368 398.876 55.8804 399.424 56.324C401.065 58.7638 401.065 61.4254 399.697 63.8653C399.15 64.9743 397.782 65.8615 395.593 65.6397C394.225 65.4179 392.309 64.7525 391.762 64.0871C390.941 62.9781 390.668 61.6473 390.394 60.5382C389.847 57.8766 392.309 55.6586 394.225 53.2188C397.782 49.2263 398.876 45.2339 397.235 41.0197C395.046 35.031 385.742 31.4822 378.081 30.595C379.449 31.2604 380.27 31.704 381.091 31.9258C386.289 33.7002 388.205 36.5836 389.299 39.6889C390.668 43.0159 385.195 46.5647 379.449 46.3429C373.976 46.1211 370.145 43.0159 371.24 39.6889C372.334 37.0272 373.702 34.5874 375.071 32.1476C377.26 28.1552 374.523 23.0537 367.956 20.8357C368.777 21.9447 369.872 22.8319 370.966 23.9409C372.882 25.7153 372.882 27.7116 370.693 29.486C369.324 30.595 368.23 31.4822 366.862 32.5912C358.106 39.6889 358.653 48.3391 368.777 54.9932C373.703 57.2112 374.797 60.0946 374.25 63.4217Z" fill="white"/>
<path d="M175.421 68.8847C174.874 73.5425 171.59 77.535 168.033 81.5274C167.486 82.1928 166.939 82.4146 166.939 83.08C166.391 85.7417 165.297 89.2905 165.023 92.1739L195.67 95.5009C195.943 94.3919 198.406 89.2905 198.68 88.1815C199.501 84.6326 199.774 81.0838 202.784 77.9786C204.426 75.9824 206.615 74.208 207.983 72.2117C212.088 67.1103 208.53 62.2307 199.501 60.4562C199.774 60.8998 200.048 61.3434 200.595 61.787C202.237 64.2269 202.237 66.8885 200.869 69.3283C200.321 70.4373 198.953 71.3245 196.764 71.1027C195.396 70.8809 193.481 70.2155 192.933 69.5501C192.113 68.4411 191.839 67.1103 191.565 66.0013C191.018 63.3397 193.481 61.1216 195.396 58.6818C198.953 54.6894 200.048 50.697 198.406 46.4827C196.217 40.4941 186.914 36.9452 179.252 36.058C180.62 36.7234 181.441 37.167 182.262 37.3888C187.461 39.1632 189.376 42.0467 190.471 45.1519C191.839 48.4789 186.366 52.0278 180.62 51.806C175.148 51.5842 171.317 48.4789 172.411 45.1519C173.506 42.4903 174.874 40.0505 176.242 37.6106C178.431 33.6182 175.695 28.5168 169.128 26.2987C169.949 27.4077 171.043 28.295 172.138 29.404C174.053 31.1784 174.053 33.1746 171.864 34.949C170.496 36.058 169.401 36.9452 168.033 38.0542C159.277 45.1519 159.824 53.8022 169.949 60.4562C174.874 62.6743 175.968 65.5577 175.421 68.8847Z" fill="white"/>
<path d="M6.00551 65.0637C7.10003 66.6163 1.08019 79.9244 0.53293 81.6989C-0.561586 84.1387 64.5622 74.1576 64.8358 72.3832C65.383 69.0561 65.9303 65.7291 69.4875 63.0675C71.9501 61.2931 72.4974 58.8533 71.6765 56.4134C70.8556 52.1992 68.6666 48.6504 65.383 45.3233C62.6467 42.4399 62.6468 39.5565 64.2885 36.2294C64.8358 35.1204 65.3831 33.7896 65.9303 32.6806L65.383 32.4588C64.5621 33.5678 63.4676 34.8986 62.6467 36.0076C59.6368 41.1091 58.5423 46.4323 60.7313 51.9774C61.8259 54.8608 61.2786 57.966 57.9951 59.7405C55.806 61.0713 52.7961 62.1803 50.0598 62.8457C44.8609 63.9547 40.7564 61.0713 40.7564 56.6352C40.7564 54.639 41.0301 52.421 40.4828 50.4248C39.1147 45.3233 35.0102 41.3309 30.9058 37.7821C28.7167 35.7858 26.8013 33.7896 26.5277 31.128C26.2541 28.0228 26.5277 24.9175 26.5277 21.8123C26.2541 22.0341 25.7068 22.4777 25.4332 23.1431C21.3288 28.91 21.876 34.6768 25.7068 40.2219C27.8958 43.5489 29.264 46.6541 28.9904 50.203C28.7168 54.639 24.8859 58.6314 20.2342 59.2969C15.8562 59.9623 13.3935 58.1878 13.6671 54.639C13.6671 53.53 14.2144 52.421 14.488 51.5338C15.5826 48.2068 12.5726 44.6579 8.19456 44.2143C9.28907 45.7669 11.4781 46.8759 10.3836 48.8722C9.56271 50.4248 8.19457 51.9774 7.10006 53.3082C6.82643 53.53 6.55276 53.7518 6.55276 53.9736C4.36373 55.9698 3.81648 58.4096 4.63737 61.0713C4.911 62.6239 5.18463 63.9547 6.00551 65.0637Z" fill="white"/>
<path d="M359.655 74.6013C358.561 76.1539 364.58 89.462 365.128 91.2365C366.222 93.6763 301.099 83.6952 300.825 81.9208C300.278 78.5937 299.73 75.2667 296.173 72.6051C293.711 70.8307 293.163 68.3908 293.984 65.951C294.805 61.7368 296.994 58.188 300.278 54.8609C303.014 51.9775 303.014 49.0941 301.372 45.767C300.825 44.658 300.278 43.3272 299.73 42.2182L300.278 41.9964C301.099 43.1054 302.193 44.4362 303.014 45.5452C306.024 50.6467 307.118 55.9699 304.929 61.515C303.835 64.3984 304.382 67.5036 307.666 69.2781C309.855 70.6089 312.865 71.7179 315.601 72.3833C320.8 73.4923 324.904 70.6089 324.904 66.1728C324.904 64.1766 324.631 61.9586 325.178 59.9624C326.546 54.8609 330.65 50.8685 334.755 47.3197C336.944 45.3234 338.859 43.3272 339.133 40.6656C339.407 37.5604 339.133 34.4551 339.133 31.3499C339.407 31.5717 339.954 32.0153 340.227 32.6807C344.332 38.4476 343.785 44.2144 339.954 49.7595C337.765 53.0865 336.397 56.1917 336.67 59.7406C336.944 64.1766 340.775 68.169 345.426 68.8344C349.805 69.4999 352.267 67.7254 351.994 64.1766C351.994 63.0676 351.446 61.9586 351.173 61.0714C350.078 57.7444 353.088 54.1955 357.466 53.7519C356.372 55.3045 354.183 56.4135 355.277 58.4098C356.098 59.9624 357.466 61.515 358.561 62.8458C358.834 63.0676 359.108 63.2894 359.108 63.5112C361.297 65.5074 361.844 67.9472 361.023 70.6089C360.75 72.1615 360.476 73.4923 359.655 74.6013Z" fill="white"/>
<path d="M56.7786 31.3499C54.3159 26.9138 52.9478 22.256 54.8632 17.3764C55.4105 16.2673 55.9577 15.1583 56.2314 13.8275C57.0522 11.3877 57.3259 8.94788 54.8632 6.95166C54.5896 6.72986 54.316 6.28626 54.316 6.06445C54.316 6.06445 54.316 6.06445 54.316 5.84265C61.4303 8.06067 63.893 12.2749 61.9776 18.4854C61.4303 20.2598 60.3358 22.0342 58.9676 23.5868C56.7786 26.9138 56.505 27.5792 56.7786 31.3499Z" fill="white"/>
<path d="M250.769 63.28C251.043 64.389 251.316 65.498 251.043 66.607L251.316 79.9151L279.774 89.2308C286.341 73.0393 287.709 65.9416 287.435 63.9454C287.435 63.5018 287.435 59.953 287.983 59.5094C291.813 56.1823 292.361 52.1899 288.53 48.6411C285.794 46.2013 286.067 43.5396 287.162 40.878C287.709 39.769 288.256 38.66 288.803 37.3292C288.53 37.3292 288.53 37.1074 288.256 37.1074C287.435 38.2164 286.341 39.3254 285.794 40.6562C284.152 43.9832 284.152 47.3103 285.52 50.6373C286.067 51.9681 285.794 53.0771 284.973 54.1861C284.152 55.2951 282.51 55.7387 280.868 55.2951C279.5 54.8515 278.679 53.9643 278.953 52.8553C279.5 50.8591 280.321 48.8629 280.868 47.0885C281.689 44.8704 282.784 42.6524 282.784 40.4344C283.057 35.333 280.595 30.8969 276.764 26.9045C275.669 25.7955 274.301 24.9083 273.207 24.0211L272.933 24.2429C273.207 24.6865 273.754 25.3519 274.027 25.7955C275.122 27.5699 276.49 29.1225 277.311 31.1187C278.679 34.0021 278.405 37.1074 276.49 39.769C275.396 41.5434 273.48 42.2088 271.291 41.7652C268.555 41.0998 266.913 39.3254 267.734 36.6638C268.281 34.6675 269.102 32.6713 269.923 30.8969C268.008 32.4495 266.366 34.2239 264.998 36.2202C261.988 41.0998 262.261 45.9795 264.45 50.8591C265.545 53.2989 266.639 55.9605 267.46 58.4004C268.008 60.6184 267.734 62.8364 265.271 64.1672C262.535 65.7198 261.167 65.0544 260.62 62.8364C260.346 61.9492 260.072 60.8402 260.346 59.953C260.893 57.2913 260.072 55.0733 258.431 52.8553C257.062 51.0809 255.694 49.3065 255.421 47.0885C255.147 47.5321 254.6 47.7539 254.6 48.1975C254.053 49.9719 254.873 51.3027 255.421 52.8553C255.968 54.1861 256.515 55.7387 256.789 57.0695C257.062 58.4004 255.968 59.2876 254.326 59.2876C252.684 59.2876 251.59 58.6222 251.59 57.0695C251.59 55.9605 252.137 54.6297 252.137 53.5207C249.674 54.8515 248.58 56.4041 249.127 58.844C249.674 60.3966 250.495 61.7274 250.769 63.28Z" fill="white"/>
<path d="M274.162 57.2913C272.793 54.1861 270.878 51.5245 273.067 48.6411C273.614 49.7501 274.162 51.0809 274.709 52.1899C275.256 53.9643 274.983 55.5169 274.162 57.2913Z" fill="white"/>
</svg>
