<svg width="149" height="198" viewBox="0 0 149 198" fill="none" xmlns="http://www.w3.org/2000/svg">
<path d="M132.561 40.8909C128.792 40.8909 125.47 42.7029 123.355 45.4609H25.9337C23.8186 42.7029 20.4964 40.8909 16.7274 40.8909C10.3402 40.8909 5.14392 46.0162 5.14392 52.3157C5.14392 58.6152 10.3402 63.7406 16.7274 63.7406C20.4967 63.7406 23.8189 61.9286 25.9337 59.1706H30.1266L27.4026 155.614C27.4026 156.532 27.961 157.364 28.8203 157.721L73.745 178.713C74.0323 178.831 74.3382 178.891 74.6439 178.891C74.9496 178.891 75.2556 178.831 75.5428 178.713L121.376 159.53C122.235 159.174 122.793 158.342 122.793 157.424L119.161 59.1706H123.354C125.469 61.9286 128.791 63.7406 132.56 63.7406C138.947 63.7406 144.144 58.6155 144.144 52.3157C144.144 46.0162 138.948 40.8909 132.561 40.8909ZM121.212 54.6006H118.661H30.6274H28.0768C28.2297 53.8626 28.3109 53.0971 28.3109 52.3157C28.3109 51.5344 28.2297 50.7688 28.0768 50.0309H121.212C121.059 50.7688 120.978 51.5344 120.978 52.3157C120.978 53.0971 121.059 53.8626 121.212 54.6006Z" fill="#BE8D69"/>
<path d="M95.6404 22.5298C98.2564 23.1335 100.168 25.5483 100.168 28.3655C100.168 31.6858 97.4515 34.3018 94.2318 34.3018C93.2256 34.3018 92.3201 34.1006 91.5151 33.5975C91.0121 33.2957 90.509 32.9938 90.1065 32.5914C89.4022 33.2957 88.4967 33.7988 87.5911 34C87.088 34.1006 86.585 34.2012 85.9813 34.2012C82.6609 34.2012 80.0449 31.4846 80.0449 28.2649C80.0449 25.0452 82.6609 22.4292 85.8807 22.3286L74.9135 0.696167L63.9464 22.3286C67.1661 22.4292 69.7821 25.0452 69.7821 28.2649C69.7821 31.5852 67.0655 34.2012 63.8458 34.2012C63.3427 34.2012 62.739 34.1006 62.2359 34C61.2298 33.6981 60.4249 33.1951 59.7205 32.5914C59.3181 32.9938 58.815 33.2957 58.3119 33.5975C57.507 34 56.5008 34.3018 55.5953 34.3018C52.275 34.3018 49.659 31.5852 49.659 28.3655C49.659 25.5483 51.5707 23.2341 54.1867 22.5298L44.8294 9.24851V40.9425V44.2628H52.8787H69.279H80.4474H96.8478H104.897V40.9425V9.24851L95.6404 22.5298ZM100.772 37.7228C101.577 37.7228 102.18 38.3265 102.18 39.1314C102.18 39.9363 101.577 40.54 100.772 40.54C99.9669 40.54 99.3632 39.9363 99.3632 39.1314C99.3632 38.3265 99.9669 37.7228 100.772 37.7228ZM94.2318 37.7228C95.0367 37.7228 95.6404 38.3265 95.6404 39.1314C95.6404 39.6345 95.3385 40.1376 94.9361 40.3388C94.7348 40.4394 94.5336 40.54 94.2318 40.54C93.4268 40.54 92.8231 39.9363 92.8231 39.1314C92.8231 38.5277 93.125 38.1252 93.6281 37.8234C93.8293 37.8234 94.0305 37.7228 94.2318 37.7228ZM87.7924 37.7228C88.5973 37.7228 89.201 38.3265 89.201 39.1314C89.201 39.9363 88.5973 40.54 87.7924 40.54C86.9874 40.54 86.3837 39.9363 86.3837 39.1314C86.3837 38.3265 86.9874 37.7228 87.7924 37.7228ZM81.3529 37.7228C82.1579 37.7228 82.7616 38.3265 82.7616 39.1314C82.7616 39.9363 82.1579 40.54 81.3529 40.54C80.548 40.54 79.9443 39.9363 79.9443 39.1314C79.9443 38.3265 80.548 37.7228 81.3529 37.7228ZM74.9135 37.7228C75.7185 37.7228 76.3222 38.3265 76.3222 39.1314C76.3222 39.9363 75.7185 40.54 74.9135 40.54C74.1086 40.54 73.5049 39.9363 73.5049 39.1314C73.5049 38.3265 74.1086 37.7228 74.9135 37.7228ZM68.3735 37.7228C69.1784 37.7228 69.7821 38.3265 69.7821 39.1314C69.7821 39.9363 69.1784 40.54 68.3735 40.54C67.5686 40.54 66.9649 39.9363 66.9649 39.1314C66.9649 38.3265 67.6692 37.7228 68.3735 37.7228ZM61.9341 37.7228C62.739 37.7228 63.3427 38.3265 63.3427 39.1314C63.3427 39.9363 62.739 40.54 61.9341 40.54C61.1292 40.54 60.5255 39.9363 60.5255 39.1314C60.5255 38.3265 61.1292 37.7228 61.9341 37.7228ZM55.4947 37.7228C55.6959 37.7228 55.8971 37.8234 56.0984 37.8234C56.6015 38.0246 56.9033 38.5277 56.9033 39.1314C56.9033 39.9363 56.2996 40.54 55.4947 40.54C55.2935 40.54 54.9916 40.4394 54.7904 40.3388C54.3879 40.1376 54.0861 39.6345 54.0861 39.1314C54.0861 38.3265 54.6898 37.7228 55.4947 37.7228ZM49.0553 37.7228C49.8602 37.7228 50.4639 38.3265 50.4639 39.1314C50.4639 39.9363 49.8602 40.54 49.0553 40.54C48.2503 40.54 47.6466 39.9363 47.6466 39.1314C47.6466 38.3265 48.2503 37.7228 49.0553 37.7228Z" fill="#BE8D69"/>
<path fill-rule="evenodd" clip-rule="evenodd" d="M126.593 155.517L124.426 96.7024C126.231 95.5951 128.398 94.8084 130.899 94.3832L135.548 93.5928C138.204 93.1412 139.361 91.2871 138.966 88.5921C138.912 88.0788 138.846 87.586 138.781 87.1055L138.781 87.1048C138.64 86.0611 138.507 85.0752 138.529 84.0628C142.125 89.7123 141.202 95.9461 137.259 98.4579C134.827 99.9762 132.396 101.495 130.039 103.368C127.296 105.86 128.343 110.838 132.283 114.035C136.427 117.382 142.553 117.077 143.465 113.239C144.452 109.757 144.7 106.032 141.863 101.542C141.467 101.003 141.158 100.325 140.709 99.3409L140.706 99.3338C140.61 99.124 140.508 98.9002 140.397 98.6609C145.579 103.673 150.438 112.054 148.593 118.812C147.37 123.624 144.241 126.734 139.282 128.498C138.776 128.715 138.261 128.916 137.751 129.116L137.75 129.116C135.395 130.037 133.123 130.925 132.19 133.202C132.153 133.299 132.116 133.398 132.079 133.497C131.66 134.611 131.179 135.889 131.149 137.246C131.17 138.164 132.208 139.828 133.097 140.782C134.596 142.185 136.127 142.108 137.177 141.378C139.609 139.859 141.152 137.387 141.346 134.224C141.197 133.512 141.25 132.951 141.304 132.389C146.988 138.973 146.804 145.449 140.794 147.944C139.542 148.581 138.13 149.001 136.704 149.425L136.704 149.425C135.653 149.738 134.594 150.053 133.585 150.459C130.565 151.386 128.539 153.379 126.593 155.517ZM25.6216 96.9073C23.7543 95.6918 21.4769 94.8342 18.8246 94.3832L14.1762 93.5928C11.5199 93.1412 10.3624 91.2871 10.7576 88.5921C10.8114 88.0786 10.878 87.5856 10.943 87.1049C11.084 86.0612 11.2172 85.0752 11.1948 84.0628C7.59858 89.7123 8.52223 95.9461 12.4646 98.4579C14.8964 99.9762 17.3282 101.495 19.6852 103.368C22.428 105.86 21.3805 110.838 17.4405 114.035C13.2971 117.382 7.17086 117.077 6.2589 113.239C5.27212 109.757 5.02424 106.032 7.86052 101.542C8.25689 101.003 8.56618 100.325 9.01509 99.3407C9.11171 99.1288 9.21479 98.9028 9.3266 98.6609C4.14504 103.673 -0.713814 112.054 1.13113 118.812C2.35409 123.624 5.48273 126.734 10.4422 128.498C10.948 128.715 11.4626 128.916 11.9733 129.116L11.9733 129.116C14.3287 130.037 16.6003 130.925 17.5342 133.202C17.5703 133.299 17.6073 133.398 17.6448 133.497C18.0636 134.611 18.5447 135.889 18.5748 137.246C18.5537 138.164 17.5156 139.828 16.627 140.782C15.1282 142.185 13.5966 142.108 12.5468 141.378C10.1149 139.859 8.57168 137.387 8.37758 134.224C8.52721 133.512 8.47343 132.951 8.41965 132.389L8.41964 132.389C2.73536 138.973 2.92012 145.449 8.92949 147.944C10.1816 148.581 11.5934 149.001 13.0198 149.425L13.0198 149.425L13.02 149.425C14.0708 149.738 15.1296 150.053 16.1384 150.459C19.5218 151.497 21.6577 153.874 23.8307 156.293C24.0027 156.484 24.175 156.676 24.3481 156.867C24.106 156.502 23.9693 156.067 23.9693 155.612L25.6216 96.9073ZM24.8254 157.39C24.9921 157.524 25.1795 157.636 25.3839 157.721L25.5756 157.819C25.3266 157.795 25.1672 157.756 25.1057 157.692C25.0118 157.592 24.9184 157.491 24.8254 157.39Z" fill="#BE8D69"/>
<path d="M59.4541 190.122V150.339L99.1416 149.533L97.0781 191.01L78.0174 197.517L59.4541 190.122Z" fill="url(#paint0_linear_1_535)"/>
<g filter="url(#filter0_d_1_535)">
<path d="M76.6299 178.584C76.6299 179.005 76.8407 179.216 77.2622 179.216C77.4358 179.216 77.6342 179.179 77.8574 179.105C78.8989 178.807 79.6924 178.299 80.238 177.579C80.4611 177.307 80.5727 177.034 80.5727 176.761C80.5727 175.67 79.3948 175.124 77.0391 175.124C75.7496 175.124 74.051 175.273 71.9432 175.571L73.1706 169.471C75.7248 167.784 77.8326 166.371 79.494 165.23C76.7663 165.478 74.7329 165.689 73.3938 165.863L73.803 158.981L88.4584 158.126C87.9872 160.953 87.5657 163.668 87.1937 166.272C85.681 166.297 83.6848 167.363 81.2051 169.471C83.4864 169.818 85.1851 170.438 86.301 171.33C87.4417 172.223 87.9996 173.389 87.9748 174.827C87.9748 177.331 86.4994 179.799 83.5484 182.229C80.5479 184.709 77.7086 185.837 75.0305 185.614C71.9556 185.366 70.3065 183.085 70.0833 178.77L76.7787 177.84C76.6795 178.113 76.6299 178.361 76.6299 178.584Z" fill="white"/>
</g>
<defs>
<filter id="filter0_d_1_535" x="66.0833" y="158.126" width="26.375" height="35.5158" filterUnits="userSpaceOnUse" color-interpolation-filters="sRGB">
<feFlood flood-opacity="0" result="BackgroundImageFix"/>
<feColorMatrix in="SourceAlpha" type="matrix" values="0 0 0 0 0 0 0 0 0 0 0 0 0 0 0 0 0 0 127 0" result="hardAlpha"/>
<feOffset dy="4"/>
<feGaussianBlur stdDeviation="2"/>
<feColorMatrix type="matrix" values="0 0 0 0 0 0 0 0 0 0 0 0 0 0 0 0 0 0 0.25 0"/>
<feBlend mode="normal" in2="BackgroundImageFix" result="effect1_dropShadow_1_535"/>
<feBlend mode="normal" in="SourceGraphic" in2="effect1_dropShadow_1_535" result="shape"/>
</filter>
<linearGradient id="paint0_linear_1_535" x1="79.2979" y1="87.8816" x2="79.2979" y2="197.517" gradientUnits="userSpaceOnUse">
<stop/>
<stop offset="1" stop-color="#76113C"/>
</linearGradient>
</defs>
</svg>
