<svg width="154" height="198" viewBox="0 0 154 198" fill="none" xmlns="http://www.w3.org/2000/svg">
<path d="M133.484 39.8909C129.742 39.8909 126.444 41.7029 124.344 44.4609H27.624C25.5241 41.7029 22.2258 39.8909 18.4839 39.8909C12.1426 39.8909 6.98376 45.0162 6.98376 51.3157C6.98376 57.6152 12.1426 62.7406 18.4839 62.7406C22.2261 62.7406 25.5244 60.9286 27.624 58.1706H31.7867L29.0823 154.614C29.0823 155.532 29.6367 156.364 30.4898 156.721L75.0913 177.713C75.3765 177.831 75.6803 177.891 75.9838 177.891C76.2873 177.891 76.591 177.831 76.8762 177.713L122.379 158.53C123.233 158.174 123.787 157.342 123.787 156.424L120.181 58.1706H124.344C126.443 60.9286 129.742 62.7406 133.484 62.7406C139.825 62.7406 144.984 57.6155 144.984 51.3157C144.984 45.0162 139.825 39.8909 133.484 39.8909ZM122.217 53.6006H119.684H32.284H29.7517C29.9034 52.8626 29.984 52.0971 29.984 51.3157C29.984 50.5344 29.9034 49.7688 29.7517 49.0309H122.217C122.065 49.7688 121.984 50.5344 121.984 51.3157C121.984 52.0971 122.065 52.8626 122.217 53.6006Z" fill="#C7C7C7"/>
<g clip-path="url(#clip0_1_558)">
<path d="M99.6927 17.775L102.157 22.9242C102.978 24.6713 102.522 26.7861 100.97 27.8895L93.8515 33.5904C93.2126 34.1421 92.4824 34.418 91.7523 34.5099L92.4824 28.2573L96.1332 24.1196L92.1173 16.8555L86.6412 23.1081L89.288 27.8895L88.5578 34.1421C87.919 33.8663 87.3713 33.4065 86.915 32.7629L81.8039 26.1425C80.7087 24.6713 80.6174 22.7403 81.7127 21.2691L86.0936 15.0165L76.1452 0.94812L66.1056 15.0165L70.4866 21.2691C71.4905 22.7403 71.4905 24.7632 70.3953 26.1425L65.2842 32.7629C64.8279 33.3146 64.2803 33.7743 63.6414 34.1421L63.0025 27.9815L65.6493 23.2001L60.1731 16.9475L56.1573 24.2115L59.8081 28.3493L60.5382 34.6019C59.8081 34.418 59.0779 34.1421 58.439 33.6824L51.32 27.9815C49.8597 26.7861 49.3121 24.6713 50.1335 23.0162L52.5978 17.867L42.9233 8.39609L48.582 36.9926V39.8431H63.2763H88.9229H103.617V36.9926L109.276 8.39609L99.6927 17.775ZM76.1452 12.4419C77.3317 12.4419 78.2444 13.3614 78.2444 14.5568C78.2444 15.7521 77.3317 16.6716 76.1452 16.6716C74.9587 16.6716 74.046 15.7521 74.046 14.5568C74.046 13.3614 74.9587 12.4419 76.1452 12.4419ZM76.1452 31.1078C77.3317 31.1078 78.2444 32.0273 78.2444 33.2226C78.2444 34.418 77.3317 35.3375 76.1452 35.3375C74.9587 35.3375 74.046 34.418 74.046 33.2226C73.9548 32.1192 74.9587 31.1078 76.1452 31.1078Z" fill="#C7C7C7"/>
</g>
<path fill-rule="evenodd" clip-rule="evenodd" d="M27.085 87.8141C24.8394 86.3111 21.9638 85.353 18.5318 85.0237L13.6505 84.5552C10.8612 84.2876 9.54958 82.5791 9.80428 79.9658C9.83048 79.4692 9.87118 78.9915 9.91086 78.5257V78.5257C9.99702 77.5144 10.0784 76.559 9.99635 75.588C6.58321 81.2393 7.90566 87.1692 12.1523 89.3352C14.77 90.6415 17.3877 91.9478 19.9482 93.6003C22.9459 95.8223 22.1451 100.669 18.2321 103.987C14.1162 107.46 7.72578 107.55 6.55449 103.921C5.326 100.638 4.85204 97.0754 7.54197 92.5856C7.92303 92.0434 8.20542 91.3726 8.61528 90.399L8.6153 90.3989C8.7035 90.1894 8.79761 89.9658 8.89988 89.7265C3.80061 94.8643 -0.76749 103.218 1.54376 109.595C3.09504 114.14 6.52995 116.931 11.7913 118.316C12.33 118.493 12.8769 118.654 13.4196 118.813L13.4198 118.813C15.9234 119.551 18.3379 120.262 19.4415 122.391C19.4847 122.482 19.5289 122.574 19.5737 122.667C20.0739 123.71 20.6485 124.908 20.7585 126.21C20.7898 127.092 19.8065 128.756 18.9375 129.728C17.4598 131.169 15.8622 131.191 14.7277 130.555C12.1099 129.249 10.3612 126.971 9.97574 123.944C10.0901 123.252 10.0016 122.716 9.9131 122.18L9.91308 122.18C4.38207 128.859 4.94998 135.068 11.3458 137.089C12.6853 137.622 14.1782 137.937 15.6867 138.256L15.6867 138.256C16.798 138.49 17.9177 138.726 18.9906 139.053C21.6876 139.645 23.6921 141.011 25.5434 142.584L27.085 87.8141ZM127.445 144.092L125.438 89.6286C127.862 87.0754 131.495 85.4706 136.152 85.0237L141.034 84.5552C143.823 84.2876 145.135 82.5791 144.88 79.9658C144.854 79.4692 144.813 78.9915 144.773 78.5257C144.687 77.5144 144.606 76.559 144.688 75.588C148.101 81.2393 146.778 87.1692 142.532 89.3352C139.914 90.6415 137.296 91.9478 134.736 93.6003C131.738 95.8223 132.539 100.669 136.452 103.987C140.568 107.46 146.958 107.55 148.13 103.921C149.358 100.638 149.832 97.0754 147.142 92.5856C146.761 92.0434 146.479 91.3727 146.069 90.3992L146.069 90.399C145.981 90.1895 145.887 89.9659 145.784 89.7265C150.884 94.8643 155.452 103.218 153.14 109.595C151.589 114.14 148.154 116.931 142.893 118.316C142.354 118.493 141.807 118.654 141.264 118.813C138.761 119.551 136.346 120.262 135.243 122.391C135.199 122.482 135.155 122.574 135.11 122.667C134.61 123.71 134.036 124.908 133.926 126.21C133.894 127.092 134.878 128.756 135.747 129.728C137.224 131.169 138.822 131.191 139.956 130.555C142.574 129.249 144.323 126.971 144.708 123.944C144.594 123.252 144.683 122.716 144.771 122.18C150.302 128.859 149.734 135.068 143.338 137.089C141.999 137.622 140.506 137.937 138.997 138.256C137.886 138.49 136.766 138.726 135.694 139.053C132.159 139.829 129.814 141.934 127.445 144.092Z" fill="#C7C7C7"/>
<path d="M56.3522 189.357V149.998L95.8452 149.099L93.7918 190.347L74.8245 197.604L56.3522 189.357Z" fill="url(#paint0_linear_1_558)"/>
<g filter="url(#filter0_d_1_558)">
<path d="M78.8363 165.289C78.8363 164.746 78.694 164.294 78.4096 163.932C78.1252 163.544 77.7373 163.35 77.246 163.35C76.16 163.35 75.5783 164.242 75.5007 166.026L68.4417 167.267C69.657 161.631 71.8807 158.114 75.1128 156.718C75.992 156.33 76.9099 156.136 77.8666 156.136C79.8318 156.136 81.5254 156.795 82.9475 158.114C84.861 159.821 85.8177 161.85 85.8177 164.203C85.8177 166.453 84.848 168.638 82.9088 170.758C81.5642 172.284 79.4439 173.706 76.5479 175.025C74.35 176.033 72.9925 176.977 72.4754 177.856L82.327 177.235L81.5125 184.294L64.9122 185.186C64.8605 184.462 64.8346 183.919 64.8346 183.557C64.8346 181.075 65.3388 178.942 66.3473 177.158C67.5367 174.96 70.2388 172.749 74.4535 170.525C76.7806 169.31 78.151 168.108 78.5648 166.918C78.7458 166.35 78.8363 165.807 78.8363 165.289Z" fill="white"/>
</g>
<defs>
<filter id="filter0_d_1_558" x="60.8346" y="156.136" width="28.9831" height="37.0505" filterUnits="userSpaceOnUse" color-interpolation-filters="sRGB">
<feFlood flood-opacity="0" result="BackgroundImageFix"/>
<feColorMatrix in="SourceAlpha" type="matrix" values="0 0 0 0 0 0 0 0 0 0 0 0 0 0 0 0 0 0 127 0" result="hardAlpha"/>
<feOffset dy="4"/>
<feGaussianBlur stdDeviation="2"/>
<feColorMatrix type="matrix" values="0 0 0 0 0 0 0 0 0 0 0 0 0 0 0 0 0 0 0.25 0"/>
<feBlend mode="normal" in2="BackgroundImageFix" result="effect1_dropShadow_1_558"/>
<feBlend mode="normal" in="SourceGraphic" in2="effect1_dropShadow_1_558" result="shape"/>
</filter>
<linearGradient id="paint0_linear_1_558" x1="76.0987" y1="75.3368" x2="76.0987" y2="197.604" gradientUnits="userSpaceOnUse">
<stop/>
<stop offset="1" stop-color="#2A3065"/>
</linearGradient>
<clipPath id="clip0_1_558">
<rect width="66.3527" height="48.8256" fill="white" transform="translate(42.9233 0.94812)"/>
</clipPath>
</defs>
</svg>
