<svg width="166" height="235" viewBox="0 0 166 235" fill="none" xmlns="http://www.w3.org/2000/svg">
<path d="M147.77 59.8909C143.594 59.8909 139.913 61.8998 137.57 64.9576H29.6362C27.2928 61.8998 23.6122 59.8909 19.4364 59.8909C12.3599 59.8909 6.60291 65.5733 6.60291 72.5576C6.60291 79.5418 12.3599 85.2243 19.4364 85.2243C23.6125 85.2243 27.2931 83.2153 29.6362 80.1575H34.2816L31.2636 187.084C31.2636 188.102 31.8823 189.024 32.8343 189.42L82.607 212.693C82.9252 212.825 83.2642 212.891 83.6029 212.891C83.9416 212.891 84.2806 212.825 84.5988 212.693L135.378 191.426C136.33 191.031 136.948 190.109 136.948 189.09L132.924 80.1575H137.57C139.913 83.2153 143.594 85.2243 147.769 85.2243C154.846 85.2243 160.603 79.5421 160.603 72.5576C160.604 65.5733 154.847 59.8909 147.77 59.8909ZM135.196 75.0908H132.37H34.8365H32.0106C32.1799 74.2726 32.2699 73.4238 32.2699 72.5576C32.2699 71.6913 32.1799 70.8425 32.0106 70.0243H135.196C135.027 70.8425 134.937 71.6913 134.937 72.5576C134.937 73.4238 135.026 74.2726 135.196 75.0908Z" fill="#FCC211"/>
<g clip-path="url(#clip0_1_503)">
<path d="M77.7235 47.7296L79.4588 46.352L77.1037 22.6821C74.0049 23.3083 71.154 24.3102 68.6749 25.6878L76.8558 48.2305C77.1037 48.2305 77.4756 47.98 77.7235 47.7296Z" fill="#FCC211"/>
<path d="M91.4823 47.7296C91.7302 47.9801 92.1021 48.1053 92.35 48.3558L100.531 25.8131C97.9279 24.4355 95.0769 23.4336 92.1021 22.8074L89.747 46.352L91.4823 47.7296Z" fill="#FCC211"/>
<path d="M80.4503 13.2893C80.4503 13.7903 80.5742 14.4165 80.6982 14.7922C81.318 16.295 82.8054 17.4222 84.5407 17.4222C86.2761 17.4222 87.7635 16.295 88.3833 14.7922C88.6312 14.2912 88.6312 13.7903 88.6312 13.2893C88.6312 11.7865 87.8875 10.5341 86.7719 9.7827L91.3582 10.6594V4.89845L86.4 5.77511L87.2677 0.765625H81.6898L82.5575 5.77511L77.5994 4.89845V10.5341L82.3096 9.7827C81.194 10.5341 80.4503 11.7865 80.4503 13.2893Z" fill="#FCC211"/>
<path d="M79.2109 17.5474L79.7068 22.3064L81.9379 44.4734L84.417 42.5949L84.6649 42.3444L84.7888 42.5949L87.2679 44.4734L89.4991 22.3064L89.9949 17.5474H84.6649H79.2109Z" fill="#FCC211"/>
<path d="M54.916 46.9782L57.519 48.481C58.2627 48.8567 59.1304 48.481 59.3783 48.3558V47.7296V40.7163L69.6664 47.9801C70.1622 48.3558 70.7819 48.6062 71.5257 48.8567C72.5173 49.1072 73.5089 49.2324 74.3766 49.1072L66.3196 27.1907L62.8489 17.5474C62.8489 17.5474 50.3297 18.6746 50.3297 30.0711C50.3297 37.2097 52.5608 43.0958 54.2962 46.6025L54.916 46.9782Z" fill="#FCC211"/>
<path d="M97.8037 48.8567C98.4235 48.6063 99.0433 48.3558 99.663 47.9801L109.951 40.7163V47.7296V48.481C110.075 48.6063 110.943 48.982 111.686 48.6063L114.289 47.1034L115.033 46.7277C116.769 43.2211 119 37.3349 119 30.1964C119 18.7998 106.48 17.6727 106.48 17.6727L102.886 27.1907L94.9528 49.1072C95.9444 49.1072 96.9361 49.1072 97.8037 48.8567Z" fill="#FCC211"/>
<path d="M56.1559 59.8776H53.5528V66.8909H115.653V59.8776H113.05H56.1559Z" fill="#FCC211"/>
<path d="M117.017 48.481L113.918 50.2343L113.05 50.7353C111.563 51.6119 109.703 51.3614 108.464 50.4848C107.72 49.9838 107.224 49.2324 107.224 48.3558V47.98V45.7258L103.382 48.6062L101.151 50.1091C99.1674 51.4867 96.4404 51.9876 93.9614 51.6119C93.8374 51.6119 93.5895 51.4867 93.4655 51.4867C92.1021 51.2362 90.8625 50.61 89.8709 49.8586L89.3751 49.4829L86.896 47.6043L84.5409 45.851L82.3098 47.6043L79.8307 49.4829L79.3349 49.8586C78.3433 50.7353 76.9798 51.2362 75.7403 51.4867C75.6163 51.4867 75.3684 51.6119 75.2444 51.6119C72.7654 51.9876 70.1624 51.4867 68.0552 50.1091L65.824 48.6062L61.8575 45.851V48.1053V48.481C61.8575 49.3576 61.3617 50.1091 60.618 50.61C59.3784 51.4867 57.5192 51.7372 56.0317 50.8605L55.164 50.3595L52.1892 48.481L47.6029 45.7258L52.685 55.6195H55.6599H114.042H117.017L121.727 45.7258L117.017 48.481Z" fill="#FCC211"/>
</g>
<path fill-rule="evenodd" clip-rule="evenodd" d="M139.809 195.531C140.14 195.099 140.33 194.564 140.33 194L139.487 130.194C141.988 129.839 144.181 128.47 145.163 126.401C147.395 121.736 148.087 116.574 146.732 111.732C145.377 106.889 146.883 102.969 148.681 98.8979C149.135 97.9646 149.792 96.9995 150.469 96.005L150.469 96.0049C150.867 95.4212 151.271 94.8272 151.645 94.2236C151.366 95.3374 151.055 96.3882 150.753 97.4068L150.753 97.4077C150.134 99.4953 149.556 101.447 149.376 103.527C149.316 105.221 150.065 107.421 151.248 109.026C155.833 115.154 158.08 121.752 156.454 129.06C155.692 132.098 153.874 134.796 152.153 137.349L152.153 137.35C151.95 137.651 151.748 137.951 151.549 138.249C150.561 139.669 149.462 140.981 148.385 142.266C147.491 143.333 146.612 144.382 145.824 145.46C144.158 147.616 144.241 148.866 145.864 150.613C147.857 152.724 150.129 153.211 152.021 151.863C155.443 149.539 157.246 146.204 157.14 142.009C156.731 136.493 159.701 132.554 163.92 129.264L163.92 129.264C163.634 130.151 163.42 130.816 162.914 131.632C162.785 132.031 162.523 132.387 162.273 132.726C161.969 133.138 161.685 133.524 161.688 133.929C161.624 134.264 161.548 134.611 161.471 134.965L161.471 134.965C161.122 136.561 160.744 138.297 161.293 139.676C163.981 146.416 162.634 152.101 158.064 157.237L157.833 157.524C155.888 159.942 154.072 162.2 153.957 165.459C153.958 165.601 153.956 165.751 153.955 165.906C153.948 166.559 153.94 167.309 154.123 167.96C154.734 171.339 156.429 172.864 158.988 172.465C161.766 172.137 163.724 169.83 163.481 166.815C163.539 165.968 163.369 165.239 163.119 164.167C163.105 164.107 163.091 164.045 163.076 163.982C163.057 163.899 163.038 163.815 163.018 163.729C166.259 166.486 166.431 169.724 165.359 173.05C165.319 173.174 165.267 173.473 165.191 173.914L165.191 173.914C164.393 178.546 160.902 198.786 139.809 195.531ZM26.581 130.054L26.3028 191.996C26.3028 193.013 26.9191 193.934 27.8673 194.329L29.3865 195.08C6.17693 200.28 2.45824 178.715 1.63047 173.914C1.55449 173.473 1.50287 173.174 1.46276 173.05C0.390959 169.724 0.562579 166.486 3.80407 163.729C3.76905 163.881 3.73506 164.027 3.70243 164.167C3.45273 165.239 3.28279 165.968 3.34092 166.815C3.09787 169.83 5.05581 172.137 7.83416 172.465C10.3924 172.864 12.0875 171.339 12.6993 167.96C12.8816 167.309 12.8739 166.559 12.8672 165.906C12.8656 165.751 12.864 165.601 12.8651 165.459C12.7497 162.2 10.9333 159.942 8.98868 157.524L8.75783 157.237C4.18741 152.101 2.84127 146.416 5.52834 139.676C6.07817 138.297 5.69931 136.561 5.3509 134.965C5.27364 134.611 5.19787 134.264 5.13406 133.929C5.13721 133.524 4.85273 133.138 4.54842 132.726C4.29914 132.387 4.03654 132.031 3.90784 131.632C3.40205 130.816 3.18773 130.151 2.90202 129.264L2.90181 129.264C7.1207 132.554 10.0904 136.493 9.6815 142.009C9.57562 146.204 11.3792 149.539 14.8006 151.863C16.6929 153.211 18.9653 152.724 20.9576 150.613C22.5812 148.866 22.6642 147.616 20.9978 145.46C20.2095 144.382 19.3306 143.333 18.4366 142.266C17.3598 140.981 16.2612 139.669 15.2727 138.249C15.0739 137.951 14.8718 137.651 14.6685 137.35C12.9475 134.796 11.1296 132.098 10.3679 129.06C8.74166 121.752 10.9886 115.154 15.5736 109.026C16.757 107.421 17.506 105.221 17.446 103.527C17.2655 101.447 16.6874 99.4953 16.0691 97.4077L16.0691 97.4076C15.7673 96.3888 15.456 95.3377 15.1767 94.2236C15.5509 94.8272 15.9552 95.4212 16.3527 96.0049L16.3527 96.0049C17.0298 96.9995 17.6868 97.9646 18.1407 98.8979C19.9385 102.969 21.4448 106.889 20.0898 111.732C18.7348 116.574 19.4263 121.736 21.6586 126.401C22.5408 128.259 24.3991 129.552 26.581 130.054Z" fill="#FCC211"/>
<path d="M57.6029 222.785V179.21L114.603 177.891L111.639 224.238L84.2639 234.891L57.6029 222.785Z" fill="#05071A"/>
<path d="M57.6029 222.785V179.21L114.603 177.891L111.639 224.238L84.2639 234.891L57.6029 222.785Z" fill="url(#paint0_linear_1_503)"/>
<g filter="url(#filter0_d_1_503)">
<path d="M95.68 186.207C92.1247 199.526 89.8191 211.239 88.7631 221.349L80.1037 223.574L84.6446 197.438L77.8861 198.473L79.2589 188.847L95.68 186.207Z" fill="white"/>
</g>
<defs>
<filter id="filter0_d_1_503" x="73.8861" y="186.207" width="25.7939" height="45.3671" filterUnits="userSpaceOnUse" color-interpolation-filters="sRGB">
<feFlood flood-opacity="0" result="BackgroundImageFix"/>
<feColorMatrix in="SourceAlpha" type="matrix" values="0 0 0 0 0 0 0 0 0 0 0 0 0 0 0 0 0 0 127 0" result="hardAlpha"/>
<feOffset dy="4"/>
<feGaussianBlur stdDeviation="2"/>
<feColorMatrix type="matrix" values="0 0 0 0 0 0 0 0 0 0 0 0 0 0 0 0 0 0 0.25 0"/>
<feBlend mode="normal" in2="BackgroundImageFix" result="effect1_dropShadow_1_503"/>
<feBlend mode="normal" in="SourceGraphic" in2="effect1_dropShadow_1_503" result="shape"/>
</filter>
<linearGradient id="paint0_linear_1_503" x1="86.1029" y1="55.4093" x2="86.1029" y2="234.891" gradientUnits="userSpaceOnUse">
<stop/>
<stop offset="1" stop-color="#2A6550"/>
</linearGradient>
<clipPath id="clip0_1_503">
<rect width="74" height="66" fill="white" transform="translate(47.6029 0.890869)"/>
</clipPath>
</defs>
</svg>
